# 3ds Max Wavefront OBJ Exporter v0.97b - (c)2007 guruware
# File Created: 20.04.2019 18:48:01

mtllib CheckPointCollision.mtl

#
# object Cylinder001
#

v  4.1685 -17.4078 -17.4078
v  4.1685 -0.0000 -24.6184
v  4.1685 17.4078 -17.4078
v  4.1685 24.6184 -0.0000
v  -4.1685 17.4078 -17.4078
v  -4.1685 24.6184 -0.0000
v  -4.1685 -0.0000 -24.6184
v  -4.1685 -17.4078 -17.4078
v  4.1685 -24.6184 0.0000
v  -4.1685 -24.6184 0.0000
v  4.1685 -17.4078 17.4078
v  -4.1685 -17.4078 17.4078
v  4.1685 0.0000 24.6184
v  -4.1685 0.0000 24.6184
v  4.1685 17.4078 17.4078
v  -4.1685 17.4078 17.4078
# 16 vertices

vn 1.0000 0.0000 -0.0000
vn -0.0000 1.0000 -0.0000
vn -0.0000 0.7071 -0.7071
vn 0.0000 -0.0000 -1.0000
vn 0.0000 -0.7071 -0.7071
vn 0.0000 -1.0000 0.0000
vn 0.0000 -0.7071 0.7071
vn 0.0000 -0.0000 1.0000
vn -0.0000 0.7071 0.7071
vn -1.0000 -0.0000 -0.0000
# 10 vertex normals

vt 0.8536 0.1464 0.0000
vt 1.0000 0.5000 0.0000
vt 0.8536 0.8536 0.0000
vt 0.8600 0.0200 -0.5000
vt 0.9800 0.0200 0.5000
vt 0.9800 0.0731 -0.5000
vt 0.8600 0.0731 -0.5000
vt 0.0200 0.0200 0.5000
vt 0.1400 0.0200 -0.5000
vt 0.1400 0.0731 -0.5000
vt 0.0200 0.0731 -0.5000
vt 0.2600 0.0200 -0.5000
vt 0.2600 0.0731 -0.5000
vt 0.3800 0.0200 -0.5000
vt 0.3800 0.0731 -0.5000
vt 0.5000 0.0200 -0.5000
vt 0.5000 0.0731 -0.5000
vt 0.6200 0.0200 -0.5000
vt 0.6200 0.0731 -0.5000
vt 0.7400 0.0200 -0.5000
vt 0.7400 0.0731 -0.5000
vt 0.1464 0.8536 0.0000
vt 0.0000 0.5000 0.0000
vt 0.1464 0.1464 0.0000
vt 0.5000 0.0000 0.0000
vt 0.5000 1.0000 0.0000
# 26 texture coords

o Cylinder001
g Cylinder001
usemtl wire_228184153
s 1
f 1/1/1 2/2/1 3/3/1 
s 8
f 4/4/2 3/5/3 5/6/3 
f 5/6/3 6/7/2 4/4/2 
f 3/8/3 2/9/4 7/10/4 
f 7/10/4 5/11/3 3/8/3 
f 2/9/4 1/12/5 8/13/5 
f 8/13/5 7/10/4 2/9/4 
f 1/12/5 9/14/6 10/15/6 
f 10/15/6 8/13/5 1/12/5 
f 9/14/6 11/16/7 12/17/7 
f 12/17/7 10/15/6 9/14/6 
f 11/16/7 13/18/8 14/19/8 
f 14/19/8 12/17/7 11/16/7 
f 13/18/8 15/20/9 16/21/9 
f 16/21/9 14/19/8 13/18/8 
f 15/20/9 4/4/2 6/7/2 
f 6/7/2 16/21/9 15/20/9 
s 1
f 16/3/10 12/1/10 14/2/10 
f 5/22/10 7/23/10 8/24/10 
f 10/25/10 6/26/10 5/22/10 
f 5/22/10 8/24/10 10/25/10 
f 6/26/10 10/25/10 12/1/10 
f 12/1/10 16/3/10 6/26/10 
f 15/22/1 11/24/1 9/25/1 
f 9/25/1 4/26/1 15/22/1 
f 15/22/1 13/23/1 11/24/1 
f 1/1/1 3/3/1 4/26/1 
f 4/26/1 9/25/1 1/1/1 
# 28 faces

