# 3ds Max Wavefront OBJ Exporter v0.97b - (c)2007 guruware
# File Created: 19.04.2019 20:01:58

mtllib SkyBoxV1.mtl

#
# object Sphere001
#

v  0.0000 440.0942 -0.0000
v  -95.0461 389.6841 -181.0952
v  -0.0000 389.6841 -204.5220
v  -168.3183 389.6841 -116.1817
v  -203.0308 389.6841 -24.6524
v  -191.2314 389.6841 72.5245
v  -135.6232 389.6841 153.0869
v  -48.9453 389.6841 198.5789
v  48.9453 389.6841 198.5789
v  135.6232 389.6841 153.0869
v  191.2314 389.6841 72.5244
v  203.0308 389.6841 -24.6525
v  168.3182 389.6841 -116.1819
v  95.0459 389.6841 -181.0953
v  -168.3183 250.0020 -320.7036
v  -0.0000 250.0020 -362.1904
v  -298.0769 250.0020 -205.7476
v  -359.5496 250.0020 -43.6572
v  -338.6539 250.0020 128.4345
v  -240.1767 250.0020 271.1034
v  -86.6779 250.0020 351.6658
v  86.6779 250.0020 351.6658
v  240.1767 250.0020 271.1033
v  338.6540 250.0020 128.4343
v  359.5496 250.0020 -43.6575
v  298.0767 250.0020 -205.7479
v  168.3179 250.0020 -320.7039
v  -203.0308 53.0474 -386.8428
v  -0.0000 53.0474 -436.8854
v  -359.5497 53.0474 -248.1792
v  -433.7000 53.0474 -52.6607
v  -408.4949 53.0474 154.9217
v  -289.7086 53.0474 327.0134
v  -104.5536 53.0474 424.1903
v  104.5536 53.0474 424.1903
v  289.7087 53.0474 327.0133
v  408.4950 53.0474 154.9215
v  433.7000 53.0474 -52.6610
v  359.5494 53.0474 -248.1795
v  203.0303 53.0474 -386.8430
v  -191.2314 -156.0596 -364.3609
v  -0.0000 -156.0596 -411.4952
v  -338.6539 -156.0596 -233.7559
v  -408.4949 -156.0596 -49.6002
v  -384.7547 -156.0596 145.9182
v  -272.8718 -156.0596 308.0085
v  -98.4773 -156.0596 399.5379
v  98.4773 -156.0596 399.5379
v  272.8719 -156.0596 308.0085
v  384.7547 -156.0596 145.9180
v  408.4949 -156.0596 -49.6006
v  338.6537 -156.0596 -233.7562
v  191.2310 -156.0596 -364.3611
v  -135.6232 -329.4152 -258.4083
v  -0.0000 -329.4152 -291.8364
v  -240.1767 -329.4152 -165.7820
v  -289.7086 -329.4152 -35.1770
v  -272.8718 -329.4152 103.4866
v  -193.5234 -329.4152 218.4427
v  -69.8410 -329.4152 283.3562
v  69.8411 -329.4152 283.3562
v  193.5234 -329.4152 218.4426
v  272.8719 -329.4152 103.4865
v  289.7086 -329.4152 -35.1772
v  240.1765 -329.4152 -165.7822
v  135.6229 -329.4152 -258.4085
v  0.0000 -440.0942 -0.0000
# 67 vertices

vn 0.0000 -1.0000 0.0000
vn 0.2289 -0.8703 0.4361
vn 0.0000 -0.8703 0.4926
vn 0.4054 -0.8703 0.2798
vn 0.4890 -0.8703 0.0594
vn 0.4606 -0.8703 -0.1747
vn 0.3266 -0.8703 -0.3687
vn 0.1179 -0.8703 -0.4782
vn -0.1179 -0.8703 -0.4782
vn -0.3266 -0.8703 -0.3687
vn -0.4606 -0.8703 -0.1747
vn -0.4890 -0.8703 0.0594
vn -0.4054 -0.8703 0.2798
vn -0.2289 -0.8703 0.4361
vn 0.3876 -0.5516 0.7386
vn 0.0000 -0.5516 0.8341
vn 0.6865 -0.5516 0.4738
vn 0.8280 -0.5516 0.1005
vn 0.7799 -0.5516 -0.2958
vn 0.5531 -0.5516 -0.6243
vn 0.1996 -0.5516 -0.8099
vn -0.1996 -0.5516 -0.8099
vn -0.5531 -0.5516 -0.6243
vn -0.7799 -0.5516 -0.2958
vn -0.8280 -0.5516 0.1005
vn -0.6865 -0.5516 0.4738
vn -0.3876 -0.5516 0.7386
vn 0.4616 -0.1164 0.8794
vn 0.0000 -0.1164 0.9932
vn 0.8174 -0.1164 0.5642
vn 0.9860 -0.1164 0.1197
vn 0.9287 -0.1164 -0.3522
vn 0.6586 -0.1164 -0.7434
vn 0.2377 -0.1164 -0.9643
vn -0.2377 -0.1164 -0.9643
vn -0.6586 -0.1164 -0.7434
vn -0.9287 -0.1164 -0.3522
vn -0.9860 -0.1164 0.1197
vn -0.8174 -0.1164 0.5642
vn -0.4616 -0.1164 0.8794
vn 0.4365 0.3431 0.8317
vn 0.0000 0.3431 0.9393
vn 0.7730 0.3431 0.5336
vn 0.9325 0.3431 0.1132
vn 0.8783 0.3431 -0.3331
vn 0.6229 0.3431 -0.7031
vn 0.2248 0.3431 -0.9120
vn -0.2248 0.3431 -0.9120
vn -0.6229 0.3431 -0.7031
vn -0.8783 0.3431 -0.3331
vn -0.9325 0.3431 0.1132
vn -0.7730 0.3431 0.5336
vn -0.4365 0.3431 0.8317
vn 0.2990 0.7655 0.5697
vn 0.0000 0.7655 0.6435
vn 0.5296 0.7655 0.3655
vn 0.6388 0.7655 0.0776
vn 0.6016 0.7655 -0.2282
vn 0.4267 0.7655 -0.4816
vn 0.1540 0.7655 -0.6248
vn -0.1540 0.7655 -0.6248
vn -0.4267 0.7655 -0.4816
vn -0.6016 0.7655 -0.2282
vn -0.6388 0.7655 0.0776
vn -0.5296 0.7655 0.3655
vn -0.2990 0.7655 0.5697
vn 0.0000 1.0000 -0.0000
# 67 vertex normals

vt 0.0000 1.0000 0.0000
vt 0.0769 0.8462 0.0000
vt 0.0000 0.8462 0.0000
vt 0.0769 1.0000 0.0000
vt 0.1538 0.8462 0.0000
vt 0.1538 1.0000 0.0000
vt 0.2308 0.8462 0.0000
vt 0.2308 1.0000 0.0000
vt 0.3077 0.8462 0.0000
vt 0.3077 1.0000 0.0000
vt 0.3846 0.8462 0.0000
vt 0.3846 1.0000 0.0000
vt 0.4615 0.8462 0.0000
vt 0.4615 1.0000 0.0000
vt 0.5385 0.8462 0.0000
vt 0.5385 1.0000 0.0000
vt 0.6154 0.8462 0.0000
vt 0.6154 1.0000 0.0000
vt 0.6923 0.8462 0.0000
vt 0.6923 1.0000 0.0000
vt 0.7692 0.8462 0.0000
vt 0.7692 1.0000 0.0000
vt 0.8462 0.8462 0.0000
vt 0.8462 1.0000 0.0000
vt 0.9231 0.8462 0.0000
vt 0.9231 1.0000 0.0000
vt 1.0000 0.8462 0.0000
vt 0.0769 0.6923 0.0000
vt 0.0000 0.6923 0.0000
vt 0.1538 0.6923 0.0000
vt 0.2308 0.6923 0.0000
vt 0.3077 0.6923 0.0000
vt 0.3846 0.6923 0.0000
vt 0.4615 0.6923 0.0000
vt 0.5385 0.6923 0.0000
vt 0.6154 0.6923 0.0000
vt 0.6923 0.6923 0.0000
vt 0.7692 0.6923 0.0000
vt 0.8462 0.6923 0.0000
vt 0.9231 0.6923 0.0000
vt 1.0000 0.6923 0.0000
vt 0.0769 0.5385 0.0000
vt 0.0000 0.5385 0.0000
vt 0.1538 0.5385 0.0000
vt 0.2308 0.5385 0.0000
vt 0.3077 0.5385 0.0000
vt 0.3846 0.5385 0.0000
vt 0.4615 0.5385 0.0000
vt 0.5385 0.5385 0.0000
vt 0.6154 0.5385 0.0000
vt 0.6923 0.5385 0.0000
vt 0.7692 0.5385 0.0000
vt 0.8462 0.5385 0.0000
vt 0.9231 0.5385 0.0000
vt 1.0000 0.5385 0.0000
vt 0.0769 0.3846 0.0000
vt 0.0000 0.3846 0.0000
vt 0.1538 0.3846 0.0000
vt 0.2308 0.3846 0.0000
vt 0.3077 0.3846 0.0000
vt 0.3846 0.3846 0.0000
vt 0.4615 0.3846 0.0000
vt 0.5385 0.3846 0.0000
vt 0.6154 0.3846 0.0000
vt 0.6923 0.3846 0.0000
vt 0.7692 0.3846 0.0000
vt 0.8462 0.3846 0.0000
vt 0.9231 0.3846 0.0000
vt 1.0000 0.3846 0.0000
vt 0.0769 0.2308 0.0000
vt 0.0000 0.2308 0.0000
vt 0.1538 0.2308 0.0000
vt 0.2308 0.2308 0.0000
vt 0.3077 0.2308 0.0000
vt 0.3846 0.2308 0.0000
vt 0.4615 0.2308 0.0000
vt 0.5385 0.2308 0.0000
vt 0.6154 0.2308 0.0000
vt 0.6923 0.2308 0.0000
vt 0.7692 0.2308 0.0000
vt 0.8462 0.2308 0.0000
vt 0.9231 0.2308 0.0000
vt 1.0000 0.2308 0.0000
vt 0.0000 0.0769 0.0000
vt 0.0769 0.0769 0.0000
vt 0.1538 0.0769 0.0000
vt 0.2308 0.0769 0.0000
vt 0.3077 0.0769 0.0000
vt 0.3846 0.0769 0.0000
vt 0.4615 0.0769 0.0000
vt 0.5385 0.0769 0.0000
vt 0.6154 0.0769 0.0000
vt 0.6923 0.0769 0.0000
vt 0.7692 0.0769 0.0000
vt 0.8462 0.0769 0.0000
vt 0.9231 0.0769 0.0000
# 96 texture coords

o Sphere001
g Sphere001
usemtl wire_177148027
s 1
f 1/1/1 2/2/2 3/3/3 
f 1/4/1 4/5/4 2/2/2 
f 1/6/1 5/7/5 4/5/4 
f 1/8/1 6/9/6 5/7/5 
f 1/10/1 7/11/7 6/9/6 
f 1/12/1 8/13/8 7/11/7 
f 1/14/1 9/15/9 8/13/8 
f 1/16/1 10/17/10 9/15/9 
f 1/18/1 11/19/11 10/17/10 
f 1/20/1 12/21/12 11/19/11 
f 1/22/1 13/23/13 12/21/12 
f 1/24/1 14/25/14 13/23/13 
f 1/26/1 3/27/3 14/25/14 
f 15/28/15 16/29/16 3/3/3 
f 3/3/3 2/2/2 15/28/15 
f 17/30/17 15/28/15 2/2/2 
f 2/2/2 4/5/4 17/30/17 
f 18/31/18 17/30/17 4/5/4 
f 4/5/4 5/7/5 18/31/18 
f 19/32/19 18/31/18 5/7/5 
f 5/7/5 6/9/6 19/32/19 
f 20/33/20 19/32/19 6/9/6 
f 6/9/6 7/11/7 20/33/20 
f 21/34/21 20/33/20 7/11/7 
f 7/11/7 8/13/8 21/34/21 
f 22/35/22 21/34/21 8/13/8 
f 8/13/8 9/15/9 22/35/22 
f 23/36/23 22/35/22 9/15/9 
f 9/15/9 10/17/10 23/36/23 
f 24/37/24 23/36/23 10/17/10 
f 10/17/10 11/19/11 24/37/24 
f 25/38/25 24/37/24 11/19/11 
f 11/19/11 12/21/12 25/38/25 
f 26/39/26 25/38/25 12/21/12 
f 12/21/12 13/23/13 26/39/26 
f 27/40/27 26/39/26 13/23/13 
f 13/23/13 14/25/14 27/40/27 
f 16/41/16 27/40/27 14/25/14 
f 14/25/14 3/27/3 16/41/16 
f 28/42/28 29/43/29 16/29/16 
f 16/29/16 15/28/15 28/42/28 
f 30/44/30 28/42/28 15/28/15 
f 15/28/15 17/30/17 30/44/30 
f 31/45/31 30/44/30 17/30/17 
f 17/30/17 18/31/18 31/45/31 
f 32/46/32 31/45/31 18/31/18 
f 18/31/18 19/32/19 32/46/32 
f 33/47/33 32/46/32 19/32/19 
f 19/32/19 20/33/20 33/47/33 
f 34/48/34 33/47/33 20/33/20 
f 20/33/20 21/34/21 34/48/34 
f 35/49/35 34/48/34 21/34/21 
f 21/34/21 22/35/22 35/49/35 
f 36/50/36 35/49/35 22/35/22 
f 22/35/22 23/36/23 36/50/36 
f 37/51/37 36/50/36 23/36/23 
f 23/36/23 24/37/24 37/51/37 
f 38/52/38 37/51/37 24/37/24 
f 24/37/24 25/38/25 38/52/38 
f 39/53/39 38/52/38 25/38/25 
f 25/38/25 26/39/26 39/53/39 
f 40/54/40 39/53/39 26/39/26 
f 26/39/26 27/40/27 40/54/40 
f 29/55/29 40/54/40 27/40/27 
f 27/40/27 16/41/16 29/55/29 
f 41/56/41 42/57/42 29/43/29 
f 29/43/29 28/42/28 41/56/41 
f 43/58/43 41/56/41 28/42/28 
f 28/42/28 30/44/30 43/58/43 
f 44/59/44 43/58/43 30/44/30 
f 30/44/30 31/45/31 44/59/44 
f 45/60/45 44/59/44 31/45/31 
f 31/45/31 32/46/32 45/60/45 
f 46/61/46 45/60/45 32/46/32 
f 32/46/32 33/47/33 46/61/46 
f 47/62/47 46/61/46 33/47/33 
f 33/47/33 34/48/34 47/62/47 
f 48/63/48 47/62/47 34/48/34 
f 34/48/34 35/49/35 48/63/48 
f 49/64/49 48/63/48 35/49/35 
f 35/49/35 36/50/36 49/64/49 
f 50/65/50 49/64/49 36/50/36 
f 36/50/36 37/51/37 50/65/50 
f 51/66/51 50/65/50 37/51/37 
f 37/51/37 38/52/38 51/66/51 
f 52/67/52 51/66/51 38/52/38 
f 38/52/38 39/53/39 52/67/52 
f 53/68/53 52/67/52 39/53/39 
f 39/53/39 40/54/40 53/68/53 
f 42/69/42 53/68/53 40/54/40 
f 40/54/40 29/55/29 42/69/42 
f 54/70/54 55/71/55 42/57/42 
f 42/57/42 41/56/41 54/70/54 
f 56/72/56 54/70/54 41/56/41 
f 41/56/41 43/58/43 56/72/56 
f 57/73/57 56/72/56 43/58/43 
f 43/58/43 44/59/44 57/73/57 
f 58/74/58 57/73/57 44/59/44 
f 44/59/44 45/60/45 58/74/58 
f 59/75/59 58/74/58 45/60/45 
f 45/60/45 46/61/46 59/75/59 
f 60/76/60 59/75/59 46/61/46 
f 46/61/46 47/62/47 60/76/60 
f 61/77/61 60/76/60 47/62/47 
f 47/62/47 48/63/48 61/77/61 
f 62/78/62 61/77/61 48/63/48 
f 48/63/48 49/64/49 62/78/62 
f 63/79/63 62/78/62 49/64/49 
f 49/64/49 50/65/50 63/79/63 
f 64/80/64 63/79/63 50/65/50 
f 50/65/50 51/66/51 64/80/64 
f 65/81/65 64/80/64 51/66/51 
f 51/66/51 52/67/52 65/81/65 
f 66/82/66 65/81/65 52/67/52 
f 52/67/52 53/68/53 66/82/66 
f 55/83/55 66/82/66 53/68/53 
f 53/68/53 42/69/42 55/83/55 
f 67/84/67 55/71/55 54/70/54 
f 67/85/67 54/70/54 56/72/56 
f 67/86/67 56/72/56 57/73/57 
f 67/87/67 57/73/57 58/74/58 
f 67/88/67 58/74/58 59/75/59 
f 67/89/67 59/75/59 60/76/60 
f 67/90/67 60/76/60 61/77/61 
f 67/91/67 61/77/61 62/78/62 
f 67/92/67 62/78/62 63/79/63 
f 67/93/67 63/79/63 64/80/64 
f 67/94/67 64/80/64 65/81/65 
f 67/95/67 65/81/65 66/82/66 
f 67/96/67 66/82/66 55/83/55 
# 130 faces

